<svg width="24" height="24" viewBox="0 0 24 24" fill="none" xmlns="http://www.w3.org/2000/svg">
<g id="Component 1">
<g id="Group 40023">
<path id="Union" fill-rule="evenodd" clip-rule="evenodd" d="M2.99994 0H16.4997C18.1543 0 19.4996 1.34531 19.4996 3V12C19.4996 13.6547 18.1543 15 16.4997 15H5.52129L1.22997 18.5761C1.09357 18.69 0.922481 18.75 0.749984 18.75C0.642174 18.75 0.532489 18.7261 0.432178 18.6797C0.167809 18.5564 0 18.2911 0 18V3C0 1.34531 1.34528 0 2.99994 0ZM5.24989 4.49999H14.2497C14.6636 4.49999 14.9997 4.83609 14.9997 5.24999C14.9997 5.6639 14.6636 5.99999 14.2497 5.99999H5.24989C4.83599 5.99999 4.49991 5.6639 4.49991 5.24999C4.49991 4.83609 4.83599 4.49999 5.24989 4.49999ZM11.2498 7.49996H5.24989C4.83599 7.49996 4.49991 7.83605 4.49991 8.24996C4.49991 8.66386 4.83599 8.99995 5.24989 8.99995H11.2498C11.6637 8.99995 11.9998 8.66386 11.9998 8.24996C11.9998 7.83605 11.6637 7.49996 11.2498 7.49996Z" fill="#128C7E"/>
<g id="Group">
<g id="Group_2">
<path id="Vector" d="M20.9996 6.00003C20.5857 6.00003 20.2496 6.33612 20.2496 6.75003C20.2496 7.16394 20.5857 7.50003 20.9996 7.50003C21.8274 7.50003 22.4996 8.17362 22.4996 9.00003V21.6886L19.9674 19.6636C19.8352 19.5586 19.6688 19.5 19.4996 19.5H8.99985C8.17205 19.5 7.49988 18.8264 7.49988 18V17.25C7.49988 16.8361 7.16379 16.5 6.74989 16.5C6.336 16.5 5.99991 16.8361 5.99991 17.25V18C5.99991 19.6547 7.34519 21 8.99985 21H19.2357L22.7803 23.8364C22.9167 23.9442 23.0831 24 23.25 24C23.3597 24 23.4703 23.9761 23.5753 23.9264C23.835 23.8003 24 23.5378 24 23.25V9.00003C23.9995 7.34534 22.6542 6.00003 20.9996 6.00003Z" fill="#128C7E"/>
</g>
</g>
</g>
</g>
</svg>
