<svg width="26" height="24" viewBox="0 0 26 24" fill="none" xmlns="http://www.w3.org/2000/svg">
<g id="Component 2">
<path id="Vector" d="M20.6058 5.51991C20.0119 4.92573 19.1908 4.58988 18.3435 4.58988H16.8848V0.861141C16.8848 0.628633 16.7887 0.413348 16.6315 0.249731C16.4655 0.0947255 16.2471 0 16.0113 0C15.7755 0 15.5571 0.0947255 15.3911 0.249731C15.2339 0.413348 15.1378 0.628633 15.1378 0.861141V4.58988H6.69995C5.85267 4.58988 5.0316 4.92573 4.43763 5.5113C3.83492 6.10549 3.49426 6.91496 3.49426 7.75027V18.084C3.49426 18.9193 3.83492 19.7287 4.42889 20.3143C5.0316 20.9085 5.84394 21.2357 6.69122 21.2357H7.38127V22.5188C7.38127 22.7944 7.45989 23.0614 7.60838 23.2939C7.75687 23.5264 7.97524 23.7072 8.22855 23.8192C8.41199 23.9225 8.62162 23.9914 8.83126 24C9.18065 24 9.51258 23.8708 9.77462 23.6469L12.6047 21.2357H18.3435C19.1908 21.2357 20.0119 20.8999 20.6058 20.3143C21.1998 19.7287 21.5405 18.9193 21.5405 18.084V7.75027C21.5492 6.91496 21.2085 6.10549 20.6058 5.51991ZM16.6315 15.8192C16.4655 15.9828 16.2471 16.0689 16.02 16.0775H9.03216C8.79632 16.0775 8.57795 15.9828 8.41199 15.8278C8.24602 15.6642 8.15867 15.4489 8.15867 15.2164C8.15867 14.9839 8.25476 14.7686 8.41199 14.6049C8.57795 14.4413 8.79632 14.3552 9.03216 14.3552H16.02C16.2471 14.3552 16.4743 14.4499 16.6315 14.6136C16.7887 14.7772 16.8848 14.9925 16.8935 15.2164C16.8848 15.4403 16.7887 15.6555 16.6315 15.8192ZM16.6315 11.2293C16.4655 11.3929 16.2471 11.479 16.02 11.4876H9.03216C8.79632 11.4876 8.57795 11.3929 8.41199 11.2379C8.24602 11.0743 8.15867 10.859 8.15867 10.6265C8.15867 10.394 8.25476 10.1787 8.41199 10.0151C8.57795 9.85145 8.79632 9.76534 9.03216 9.76534H16.02C16.2471 9.76534 16.4743 9.86006 16.6315 10.0237C16.7974 10.1873 16.8848 10.4026 16.8935 10.6265C16.8848 10.8504 16.7887 11.0657 16.6315 11.2293Z" fill="#F9853C"/>
<path id="Vector_2" d="M0.000345116 10.6178V12.9171C-0.00838974 13.5113 0.148838 14.0882 0.454558 14.5963C0.760277 15.1044 1.21449 15.5177 1.74732 15.7847V7.81052C1.22322 8.07747 0.777747 8.4736 0.472027 8.97306C0.166307 9.46391 0.000345116 10.0409 0.000345116 10.6178Z" fill="#F9853C"/>
<path id="Vector_3" d="M25.0431 10.6178V12.9171C25.0519 13.5113 24.8946 14.0882 24.5889 14.5963C24.2832 15.1044 23.829 15.5177 23.2962 15.7847V7.81052C23.8203 8.07747 24.2657 8.4736 24.5714 8.97306C24.8772 9.46391 25.0431 10.0409 25.0431 10.6178Z" fill="#F9853C"/>
</g>
</svg>
