<svg width="20" height="24" viewBox="0 0 20 24" fill="none" xmlns="http://www.w3.org/2000/svg">
<g id="Component 4">
<path id="Vector" d="M3.70064 11.985C3.70064 12.4944 3.28695 12.9064 2.77548 12.9064H0.92516C0.41369 12.9064 0 12.4944 0 11.985C0 11.4757 0.41369 11.0637 0.92516 11.0637H2.77548C3.28695 11.0637 3.70064 11.4757 3.70064 11.985Z" fill="#FF5050"/>
<path id="Vector_2" d="M3.70064 6.0824C3.70064 5.57304 3.28695 5.16106 2.77548 5.16106H0.92516C0.41369 5.16106 0 5.57304 0 6.0824C0 6.59177 0.41369 7.00375 0.92516 7.00375H2.77548C3.28695 7.00375 3.70064 6.59177 3.70064 6.0824Z" fill="#FF5050"/>
<path id="Vector_3" d="M3.70064 17.8881C3.70064 17.3788 3.28695 16.9668 2.77548 16.9668H0.92516C0.41369 16.9668 0 17.3788 0 17.8881C0 18.3975 0.41369 18.8095 0.92516 18.8095H2.77548C3.28695 18.8095 3.70064 18.3975 3.70064 17.8881Z" fill="#FF5050"/>
<path id="Vector_4" d="M17.0365 0H4.07671C2.43699 0 1.11319 1.31835 1.11319 2.95131V4.42697H2.78299C3.70063 4.42697 4.45279 5.16854 4.45279 6.08989C4.45279 7.01124 3.70815 7.75281 2.78299 7.75281H1.11319V10.3371H2.78299C3.70063 10.3371 4.45279 11.0787 4.45279 12C4.45279 12.9139 3.70815 13.6629 2.78299 13.6629H1.11319V16.2472H2.78299C3.70063 16.2472 4.45279 16.9888 4.45279 17.9101C4.45279 18.824 3.70815 19.573 2.78299 19.573H1.11319V21.0487C1.11319 22.6816 2.43699 24 4.07671 24H17.0365C18.6687 24 20 22.6816 20 21.0487V2.95131C19.9925 1.31835 18.6687 0 17.0365 0ZM11.1094 5.90262C12.689 5.90262 13.9677 7.17603 13.9677 8.74906C13.9677 10.3221 12.689 11.5955 11.1094 11.5955C9.52989 11.5955 8.25121 10.3221 8.25121 8.74906C8.25121 7.17603 9.52989 5.90262 11.1094 5.90262ZM15.5547 16.9663H6.66415V15.7004C6.66415 13.9551 8.08574 12.5393 9.83828 12.5393H12.3806C14.1331 12.5393 15.5547 13.9551 15.5547 15.7004V16.9663Z" fill="#FF5050"/>
</g>
</svg>
