<svg width="23" height="24" viewBox="0 0 23 24" fill="none" xmlns="http://www.w3.org/2000/svg">
<g id="Layer 2">
<path id="Vector" d="M13.38 22.0629L10.3114 22.7057C10.1367 22.7431 9.95868 22.7632 9.78 22.7657C9.09853 22.7637 8.44543 22.4926 7.96286 22.0114C7.65993 21.7093 7.43764 21.3359 7.31635 20.9256C7.19505 20.5153 7.17863 20.0812 7.26857 19.6629L7.91143 16.5943C8.01055 16.1021 8.25545 15.6511 8.61429 15.3L16.68 7.23429C16.8241 7.09136 16.9788 6.95956 17.1429 6.84V2.57143C17.1408 1.89007 16.8693 1.2372 16.3875 0.755402C15.9057 0.273606 15.2528 0.00203493 14.5714 0H2.57143C1.89007 0.00203493 1.2372 0.273606 0.755402 0.755402C0.273606 1.2372 0.00203493 1.89007 0 2.57143V21.4286C0.00203493 22.1099 0.273606 22.7628 0.755402 23.2446C1.2372 23.7264 1.89007 23.998 2.57143 24H14.5714C15.2528 23.998 15.9057 23.7264 16.3875 23.2446C16.8693 22.7628 17.1408 22.1099 17.1429 21.4286V18.8914L14.6743 21.36C14.3231 21.7188 13.8722 21.9637 13.38 22.0629ZM4.28571 3.42857H12.8571C13.0845 3.42857 13.3025 3.51888 13.4632 3.67962C13.624 3.84037 13.7143 4.05839 13.7143 4.28571C13.7143 4.51304 13.624 4.73106 13.4632 4.89181C13.3025 5.05255 13.0845 5.14286 12.8571 5.14286H4.28571C4.05839 5.14286 3.84037 5.05255 3.67962 4.89181C3.51888 4.73106 3.42857 4.51304 3.42857 4.28571C3.42857 4.05839 3.51888 3.84037 3.67962 3.67962C3.84037 3.51888 4.05839 3.42857 4.28571 3.42857ZM4.28571 6.85714H12.8571C13.0845 6.85714 13.3025 6.94745 13.4632 7.10819C13.624 7.26894 13.7143 7.48696 13.7143 7.71429C13.7143 7.94161 13.624 8.15963 13.4632 8.32038C13.3025 8.48112 13.0845 8.57143 12.8571 8.57143H4.28571C4.05839 8.57143 3.84037 8.48112 3.67962 8.32038C3.51888 8.15963 3.42857 7.94161 3.42857 7.71429C3.42857 7.48696 3.51888 7.26894 3.67962 7.10819C3.84037 6.94745 4.05839 6.85714 4.28571 6.85714ZM3.42857 11.1429C3.42857 10.9155 3.51888 10.6975 3.67962 10.5368C3.84037 10.376 4.05839 10.2857 4.28571 10.2857H7.71429C7.94161 10.2857 8.15963 10.376 8.32038 10.5368C8.48112 10.6975 8.57143 10.9155 8.57143 11.1429C8.57143 11.3702 8.48112 11.5882 8.32038 11.7489C8.15963 11.9097 7.94161 12 7.71429 12H4.28571C4.05839 12 3.84037 11.9097 3.67962 11.7489C3.51888 11.5882 3.42857 11.3702 3.42857 11.1429Z" fill="#FAC300"/>
<path id="Vector_2" d="M21.5332 8.44289C21.0433 7.97534 20.3921 7.71448 19.7148 7.71448C19.0376 7.71448 18.3864 7.97534 17.8964 8.44289L9.82211 16.5163C9.70483 16.6337 9.62414 16.7826 9.58982 16.9449L8.94525 20.0143C8.91898 20.1391 8.92088 20.2681 8.95081 20.3921C8.98074 20.516 9.03795 20.6317 9.11826 20.7308C9.19857 20.8298 9.29997 20.9097 9.41506 20.9646C9.53014 21.0194 9.65603 21.048 9.78353 21.048C9.8429 21.0481 9.90209 21.0418 9.96011 21.0292L13.0295 20.3837C13.1919 20.3494 13.3407 20.2687 13.4581 20.1515L21.5315 12.0789C21.7704 11.8401 21.9598 11.5566 22.0891 11.2446C22.2183 10.9326 22.2848 10.5982 22.2848 10.2605C22.2848 9.92274 22.2183 9.58832 22.0891 9.27631C21.9598 8.96431 21.7704 8.68081 21.5315 8.44203L21.5332 8.44289Z" fill="#FAC300"/>
</g>
</svg>
