<svg width="24" height="24" viewBox="0 0 24 24" fill="none" xmlns="http://www.w3.org/2000/svg">
<g id="Group">
<path id="Vector" d="M13.0214 13.0898L11.2934 14.8179L9.18218 12.7066L10.9102 10.9786C11.2931 10.5958 11.2931 9.97262 10.9102 9.58975C10.5273 9.20682 9.90425 9.20682 9.52132 9.58975L7.79323 11.3178L6.92533 10.4499C6.69522 10.2197 6.32206 10.2198 6.09195 10.4499L4.83827 11.7035C4.60816 11.9336 4.60816 12.3068 4.83827 12.5369L5.02538 12.7241L2.19251 15.5568C2.06065 15.6887 1.99898 15.8753 2.0263 16.0598L2.46284 19.0095L0.17259 21.2998C-0.0575248 21.5298 -0.0575248 21.903 0.17259 22.1331L1.867 23.8275C2.09712 24.0576 2.47022 24.0576 2.70033 23.8275L4.99064 21.5372L7.9404 21.9738C8.12489 22.001 8.31149 21.9395 8.4433 21.8075L11.2761 18.9747L11.4632 19.1618C11.6933 19.3918 12.0665 19.3918 12.2966 19.1618L13.5502 17.908C13.7804 17.6781 13.7804 17.3048 13.5502 17.0747L12.6823 16.2068L14.4104 14.4788C14.7932 14.0959 14.7932 13.4728 14.4104 13.0898C14.0274 12.7069 13.4044 12.7069 13.0214 13.0898Z" fill="#3F4F72"/>
<path id="Vector_2" d="M23.8274 1.86703L22.133 0.172502C21.903 -0.0575007 21.5298 -0.0575007 21.2997 0.172502L19.0094 2.46287L16.0596 2.02626C15.8751 1.99901 15.6885 2.06061 15.5567 2.19259L12.7239 5.0254L12.5367 4.83824C12.3067 4.60818 11.9335 4.60807 11.7034 4.83824L10.4497 6.09192C10.2196 6.32203 10.2196 6.69513 10.4497 6.9253L17.0746 13.5502C17.3046 13.7803 17.6779 13.7803 17.908 13.5502L19.1616 12.2965C19.3917 12.0663 19.3917 11.6932 19.1616 11.4631L18.9745 11.276L21.8073 8.44316C21.9392 8.31135 22.0009 8.12485 21.9736 7.94026L21.5371 4.99055L23.8274 2.70024C24.0576 2.47018 24.0576 2.09697 23.8274 1.86703Z" fill="#3F4F72"/>
</g>
</svg>
