<svg width="24" height="24" viewBox="0 0 24 24" fill="none" xmlns="http://www.w3.org/2000/svg">
<g id="Component 3">
<path id="Vector" fill-rule="evenodd" clip-rule="evenodd" d="M2.432 9.75755L7.136 5.61823C7.072 5.4414 7.04 5.2485 7.04 5.03953C7.04 4.11521 7.784 3.36772 8.704 3.36772C9.6 3.36772 10.336 4.08306 10.368 4.98326L14.088 6.29338C14.392 5.93169 14.848 5.70664 15.352 5.70664C15.64 5.70664 15.904 5.77898 16.144 5.90758L20.432 2.22639C20.368 2.04957 20.336 1.8647 20.336 1.6718C20.336 0.747489 21.08 0 22 0C22.92 0 23.664 0.747489 23.664 1.6718C23.664 2.59612 22.92 3.34361 22 3.34361C21.712 3.34361 21.448 3.27127 21.208 3.14267L16.92 6.82385C16.984 7.00068 17.016 7.18554 17.016 7.37844C17.016 8.30276 16.272 9.05025 15.352 9.05025C14.456 9.05025 13.72 8.33491 13.688 7.43471L9.968 6.12459C9.664 6.48628 9.208 6.71133 8.704 6.71133C8.424 6.71133 8.16 6.63899 7.928 6.51843L3.224 10.6578C3.288 10.8346 3.328 11.0275 3.328 11.2284C3.328 12.1527 2.584 12.9002 1.664 12.9002C0.744 12.9002 0 12.1527 0 11.2284C0 10.3041 0.744 9.55661 1.664 9.55661C1.936 9.56465 2.2 9.62895 2.432 9.75755Z" fill="#4ABC6C"/>
<path id="Vector_2" fill-rule="evenodd" clip-rule="evenodd" d="M20.72 6.63901C20.304 6.63901 19.968 6.97658 19.968 7.39453V22.7703C19.968 23.1883 20.304 23.5258 20.72 23.5258H23.248C23.664 23.5258 24 23.1883 24 22.7703V7.39453C24 6.97658 23.664 6.63901 23.248 6.63901H20.72Z" fill="#4ABC6C"/>
<path id="Vector_3" fill-rule="evenodd" clip-rule="evenodd" d="M14.08 12.7877C13.664 12.7877 13.328 13.1253 13.328 13.5432V22.9311C13.328 23.349 13.664 23.6866 14.08 23.6866H16.608C17.024 23.6866 17.36 23.349 17.36 22.9311C17.36 19.8045 17.36 16.6698 17.36 13.5432C17.36 13.1253 17.024 12.7877 16.608 12.7877C15.76 12.7877 14.92 12.7877 14.08 12.7877Z" fill="#4ABC6C"/>
<path id="Vector_4" fill-rule="evenodd" clip-rule="evenodd" d="M7.43198 10.5774C7.01598 10.5774 6.67998 10.915 6.67998 11.3329V23.0838C6.67998 23.5017 7.01598 23.8393 7.43198 23.8393H9.95998C10.376 23.8393 10.712 23.5017 10.712 23.0838V11.3329C10.712 10.915 10.376 10.5774 9.95998 10.5774H7.43198Z" fill="#4ABC6C"/>
<path id="Vector_5" fill-rule="evenodd" clip-rule="evenodd" d="M0.79199 17.0636H3.31999C3.73599 17.0636 4.07199 17.4012 4.07199 17.8192V23.2445C4.07199 23.6624 3.73599 24 3.31999 24H0.79199C0.375989 24 0.0399895 23.6624 0.0399895 23.2445V17.8192C0.0399895 17.4012 0.375989 17.0636 0.79199 17.0636Z" fill="#4ABC6C"/>
</g>
</svg>
