<svg width="54" height="54" viewBox="0 0 54 54" fill="none" xmlns="http://www.w3.org/2000/svg">
<path id="Vector" fill-rule="evenodd" clip-rule="evenodd" d="M36.2675 52.3521C36.0212 52.4921 35.7419 52.5762 35.4386 52.5762C34.5058 52.5762 33.7511 51.8214 33.7511 50.8887C33.7511 50.1537 34.2199 49.5357 34.8783 49.3034L34.8619 49.2589C44.0388 46.0156 50.6267 37.2881 50.6267 27.0002C50.6267 13.9525 40.0482 3.37331 27.0001 3.37331C13.952 3.37331 3.37342 13.9525 3.37342 27.0002C3.37342 35.2841 7.64754 42.5582 14.0994 46.7736C14.5938 47.0571 15.159 47.2236 15.7663 47.2236C17.2009 47.2236 18.4187 46.3254 18.9074 45.0631C19.509 43.2883 20.0009 41.5563 20.2488 40.4999C20.5892 39.0711 21.3596 35.556 21.7304 33.8585C21.774 33.6426 21.8053 33.4252 21.8053 33.1961C21.8053 32.7907 21.7262 32.4034 21.5944 32.0441C21.0926 30.7275 20.2134 28.1962 20.2134 26.6022C20.2134 23.1002 21.9421 20.2509 24.4685 20.2509C26.6176 20.2509 27.8436 22.5367 27.8436 24.4681C27.8436 26.6294 26.578 29.4256 25.8702 32.4166C25.2778 34.9232 27.0584 37.1265 29.5312 37.1265C34.008 37.1265 37.9681 31.8068 37.9681 24.468C37.9681 19.2917 33.3438 15.1875 26.9999 15.1875C19.8328 15.1875 15.1871 20.3984 15.1871 27.0001C15.1871 29.058 15.9237 30.9383 16.8746 32.0622C17.3121 32.5796 17.6829 32.8681 17.5238 33.4613C17.4101 33.8964 17.3615 33.9953 17.0434 34.5144C16.718 35.0418 16.3999 35.3269 15.861 35.106C12.5592 33.7579 11.8119 30.2197 11.8119 26.1555C11.8119 19.6567 16.6174 11.8125 27.8435 11.8125C35.8627 11.8125 41.344 17.8309 41.344 24.468C41.344 33.3146 36.2484 40.4998 30.3749 40.4998C28.8011 40.4998 27.191 40.1784 25.9912 39.5687C25.7852 39.4764 25.5561 39.4187 25.3122 39.4187C24.5739 39.4187 23.9493 39.8983 23.7227 40.5575C23.3181 42.1477 22.8411 44.0231 22.6819 44.5966C22.4677 45.3712 22.148 46.1638 21.792 46.9368C20.6762 49.1221 18.4168 50.6266 15.7924 50.6266C14.5589 50.6266 13.4102 50.2789 12.4148 49.6988C4.95302 44.8967 0 36.5333 0 27.0002C0 12.0886 12.0881 0 27 0C41.9119 0 54 12.0886 54 27.0002C54 38.6525 46.6079 48.5667 36.2675 52.3521ZM28.6875 50.6267C29.6204 50.6267 30.3751 51.3814 30.3751 52.3142C30.3751 53.2453 29.6204 54 28.6875 54C27.7547 54 27 53.2453 27 52.3142C27 51.3814 27.7547 50.6267 28.6875 50.6267Z" fill="#23C55F"/>
</svg>
