<svg width="19" height="24" viewBox="0 0 19 24" fill="none" xmlns="http://www.w3.org/2000/svg">
<g id="Group 41280">
<path id="Vector" d="M13.3594 5.625H17.8693L12.6562 0.411987V4.92188C12.6562 5.30981 12.9714 5.625 13.3594 5.625Z" fill="#00A3AD"/>
<path id="Vector_2" d="M2.10938 24H16.1719C17.335 24 18.2812 23.0538 18.2812 21.8906V7.03125H13.3594C12.1962 7.03125 11.25 6.08503 11.25 4.92188V0H2.10938C0.946219 0 0 0.946219 0 2.10938V21.8906C0 23.0538 0.946219 24 2.10938 24ZM6.32812 11.2969H13.3594C13.748 11.2969 14.0625 11.6114 14.0625 12C14.0625 12.3886 13.748 12.7031 13.3594 12.7031H6.32812C5.93948 12.7031 5.625 12.3886 5.625 12C5.625 11.6114 5.93948 11.2969 6.32812 11.2969ZM6.32812 14.1094H13.3594C13.748 14.1094 14.0625 14.4239 14.0625 14.8125C14.0625 15.2011 13.748 15.5156 13.3594 15.5156H6.32812C5.93948 15.5156 5.625 15.2011 5.625 14.8125C5.625 14.4239 5.93948 14.1094 6.32812 14.1094ZM6.32812 16.9219H13.3594C13.748 16.9219 14.0625 17.2364 14.0625 17.625C14.0625 18.0136 13.748 18.3281 13.3594 18.3281H6.32812C5.93948 18.3281 5.625 18.0136 5.625 17.625C5.625 17.2364 5.93948 16.9219 6.32812 16.9219ZM3.51562 11.2969C3.90394 11.2969 4.21875 11.6117 4.21875 12C4.21875 12.3883 3.90394 12.7031 3.51562 12.7031C3.12731 12.7031 2.8125 12.3883 2.8125 12C2.8125 11.6117 3.12731 11.2969 3.51562 11.2969ZM3.51562 14.1094C3.90394 14.1094 4.21875 14.4242 4.21875 14.8125C4.21875 15.2008 3.90394 15.5156 3.51562 15.5156C3.12731 15.5156 2.8125 15.2008 2.8125 14.8125C2.8125 14.4242 3.12731 14.1094 3.51562 14.1094ZM3.51562 16.9219C3.90394 16.9219 4.21875 17.2367 4.21875 17.625C4.21875 18.0133 3.90394 18.3281 3.51562 18.3281C3.12731 18.3281 2.8125 18.0133 2.8125 17.625C2.8125 17.2367 3.12731 16.9219 3.51562 16.9219Z" fill="#00A3AD"/>
</g>
</svg>
