<svg width="24" height="24" viewBox="0 0 24 24" fill="none" xmlns="http://www.w3.org/2000/svg">
<g id="Component 6">
<path id="Vector" d="M20.4853 3.51464C18.2188 1.24819 15.2054 0 12 0C8.79464 0 5.78119 1.24819 3.51469 3.51464C1.24819 5.7811 0 8.79465 0 12C0 15.1686 1.22367 18.1574 3.44578 20.4158C3.58341 20.5557 3.76514 20.6258 3.94702 20.6258C4.125 20.6258 4.30317 20.5586 4.44009 20.4238C4.71689 20.1514 4.7205 19.7063 4.4482 19.4295C2.48658 17.4358 1.40625 14.7973 1.40625 12C1.40625 6.15858 6.15858 1.40625 12 1.40625C17.8414 1.40625 22.5938 6.15858 22.5938 12C22.5938 14.7973 21.5134 17.4358 19.5517 19.4295C19.2793 19.7063 19.2829 20.1515 19.5597 20.4239C19.8365 20.6962 20.2817 20.6926 20.554 20.4158C22.7762 18.1574 24 15.1686 24 12C24 8.79465 22.7518 5.78119 20.4853 3.51464Z" fill="#6889CF"/>
<path id="Vector_2" d="M12 3.01254C7.04422 3.01254 3.01245 7.04431 3.01245 12C3.01245 14.0364 3.71248 16.0311 4.9835 17.6169C5.22631 17.9199 5.6689 17.9685 5.97186 17.7257C6.27486 17.4829 6.32361 17.0404 6.08075 16.7373C4.99344 15.3808 4.4187 13.7427 4.4187 12C4.4187 7.81972 7.81972 4.41879 12 4.41879C16.1802 4.41879 19.5812 7.81972 19.5812 12C19.5812 13.7427 19.0065 15.3808 17.9192 16.7375C17.6763 17.0405 17.7251 17.483 18.0281 17.7258C18.1578 17.8298 18.3131 17.8804 18.4673 17.8804C18.6734 17.8803 18.8776 17.7902 19.0165 17.6169C20.2875 16.0311 20.9874 14.0363 20.9874 12C20.9874 7.04431 16.9557 3.01254 12 3.01254Z" fill="#6889CF"/>
<path id="Vector_3" d="M16.4737 14.878C16.5704 14.9235 16.6722 14.945 16.7725 14.945C17.0364 14.945 17.2894 14.7957 17.4092 14.5411C17.7846 13.7432 17.9749 12.8883 17.9749 12C17.9749 8.7054 15.2946 6.02499 12 6.02499C8.7054 6.02499 6.02499 8.7054 6.02499 12C6.02499 12.8882 6.21535 13.7431 6.59068 14.5409C6.75601 14.8923 7.17488 15.0431 7.52621 14.8779C7.87763 14.7126 8.02843 14.2937 7.86315 13.9423C7.5766 13.3331 7.43124 12.6797 7.43124 12C7.43124 9.48081 9.48085 7.43125 12 7.43125C14.5192 7.43125 16.5687 9.48081 16.5687 12C16.5687 12.6797 16.4233 13.3332 16.1367 13.9424C15.9714 14.2938 16.1222 14.7126 16.4737 14.878Z" fill="#6889CF"/>
<path id="Vector_4" d="M13.5503 13.279C13.1745 12.6281 12.6095 12.2548 12 12.2548C11.3905 12.2548 10.8254 12.6281 10.4497 13.279L5.8103 21.3146C5.43446 21.9655 5.39372 22.6416 5.69846 23.1694C6.00319 23.6972 6.609 23.9999 7.36055 23.9999L16.6394 24C17.391 24 17.9968 23.6973 18.3015 23.1694C18.6062 22.6416 18.5655 21.9655 18.1896 21.3148L13.5503 13.279Z" fill="#6889CF"/>
</g>
</svg>
