<svg width="7" height="20" viewBox="0 0 7 20" fill="none" xmlns="http://www.w3.org/2000/svg">
<g id="Group 40169">
<path id="Vector" d="M3.875 20C3.05 20 2.34375 19.7552 1.75625 19.2656C1.16875 18.776 0.875 18.1875 0.875 17.5C0.875 16.8125 1.16875 16.224 1.75625 15.7344C2.34375 15.2448 3.05 15 3.875 15C4.7 15 5.40625 15.2448 5.99375 15.7344C6.58125 16.224 6.875 16.8125 6.875 17.5C6.875 18.1875 6.58125 18.776 5.99375 19.2656C5.40625 19.7552 4.7 20 3.875 20ZM3.875 12.5C3.05 12.5 2.34375 12.2552 1.75625 11.7656C1.16875 11.276 0.875 10.6875 0.875 10C0.875 9.3125 1.16875 8.72396 1.75625 8.23438C2.34375 7.74479 3.05 7.5 3.875 7.5C4.7 7.5 5.40625 7.74479 5.99375 8.23438C6.58125 8.72396 6.875 9.3125 6.875 10C6.875 10.6875 6.58125 11.276 5.99375 11.7656C5.40625 12.2552 4.7 12.5 3.875 12.5ZM3.875 5C3.05 5 2.34375 4.75521 1.75625 4.26562C1.16875 3.77604 0.875 3.1875 0.875 2.5C0.875 1.8125 1.16875 1.22396 1.75625 0.734375C2.34375 0.244792 3.05 0 3.875 0C4.7 0 5.40625 0.244792 5.99375 0.734375C6.58125 1.22396 6.875 1.8125 6.875 2.5C6.875 3.1875 6.58125 3.77604 5.99375 4.26562C5.40625 4.75521 4.7 5 3.875 5Z" fill="#484848"/>
</g>
</svg>
