<svg width="14" height="19" viewBox="0 0 14 19" fill="none" xmlns="http://www.w3.org/2000/svg">
<g id="Group 41068">
<path id="path919" d="M7.10129 0.637022C6.8179 0.625244 6.55165 0.773339 6.41117 1.02086L3.37824 6.353C3.04719 6.93499 3.57181 7.63186 4.2194 7.47031L5.18645 7.2278C5.3733 7.18093 5.55372 7.32295 5.55372 7.51643V10.9978C5.55372 11.1185 5.53004 11.2381 5.48405 11.3497C5.43805 11.4612 5.37063 11.5626 5.28564 11.648L0.637042 16.318C0.0449768 16.9129 0.0449768 17.8774 0.637042 18.4723C1.22923 19.0671 2.18923 19.0671 2.78142 18.4723L6.80211 14.4331C6.87321 14.3616 6.96964 14.3215 7.07019 14.3215C7.17074 14.3215 7.26717 14.3616 7.33827 14.4331L11.3589 18.4723C11.9511 19.0671 12.9111 19.0671 13.5033 18.4723C14.0954 17.8774 14.0954 16.9129 13.5033 16.318L8.85474 11.648C8.76974 11.5626 8.70233 11.4612 8.65633 11.3497C8.61033 11.2381 8.58666 11.1185 8.58666 10.9978V7.51792C8.58666 7.3244 8.76849 7.1825 8.95541 7.22929L9.91801 7.47031C10.5663 7.63365 11.0926 6.93572 10.7607 6.353L7.72772 1.02086C7.59853 0.793197 7.36192 0.648204 7.10129 0.637022Z" fill="white"/>
</g>
</svg>
