<svg width="15" height="18" viewBox="0 0 15 18" fill="none" xmlns="http://www.w3.org/2000/svg">
<g id="Group">
<path id="Vector" d="M13.2187 2.25H10.125V1.6875C10.125 0.755508 9.36949 0 8.4375 0H6.1875C5.25551 0 4.5 0.755508 4.5 1.6875V2.25H1.40625C0.629613 2.25 0 2.87961 0 3.65625V4.78125C0 5.09193 0.251824 5.34375 0.5625 5.34375H14.0625C14.3732 5.34375 14.625 5.09193 14.625 4.78125V3.65625C14.625 2.87961 13.9954 2.25 13.2187 2.25ZM5.625 1.6875C5.625 1.37742 5.87742 1.125 6.1875 1.125H8.4375C8.74758 1.125 9 1.37742 9 1.6875V2.25H5.625V1.6875Z" fill="white"/>
<path id="Vector_2" d="M1.0686 6.46895C0.968225 6.46895 0.888245 6.55283 0.893026 6.6531L1.35709 16.3929C1.39998 17.2943 2.14037 18.0002 3.04248 18.0002H11.5847C12.4869 18.0002 13.2272 17.2943 13.2701 16.3929L13.7342 6.6531C13.739 6.55283 13.659 6.46895 13.5586 6.46895H1.0686ZM9.56361 7.8752C9.56361 7.56442 9.81533 7.3127 10.1261 7.3127C10.4369 7.3127 10.6886 7.56442 10.6886 7.8752V15.1877C10.6886 15.4985 10.4369 15.7502 10.1261 15.7502C9.81533 15.7502 9.56361 15.4985 9.56361 15.1877V7.8752ZM6.75111 7.8752C6.75111 7.56442 7.00283 7.3127 7.31361 7.3127C7.62439 7.3127 7.87611 7.56442 7.87611 7.8752V15.1877C7.87611 15.4985 7.62439 15.7502 7.31361 15.7502C7.00283 15.7502 6.75111 15.4985 6.75111 15.1877V7.8752ZM3.93861 7.8752C3.93861 7.56442 4.19033 7.3127 4.50111 7.3127C4.81189 7.3127 5.06361 7.56442 5.06361 7.8752V15.1877C5.06361 15.4985 4.81189 15.7502 4.50111 15.7502C4.19033 15.7502 3.93861 15.4985 3.93861 15.1877V7.8752Z" fill="white"/>
</g>
</svg>
