<svg width="18" height="18" viewBox="0 0 18 18" fill="none" xmlns="http://www.w3.org/2000/svg">
<path id="Vector" d="M16.5001 0H10.2656C9.85313 0 9.2767 0.238931 8.9853 0.530114L0.43773 9.07764C-0.14591 9.66062 -0.14591 10.6164 0.43773 11.1987L6.80209 17.5628C7.38441 18.1458 8.3393 18.1458 8.9225 17.5622L17.4701 9.01598C17.7612 8.72484 18.0002 8.14749 18.0002 7.73594V1.50008C18.0002 0.675222 17.3249 0 16.5001 0ZM13.4999 6.00009C12.6714 6.00009 11.9998 5.32777 11.9998 4.50001C11.9998 3.6709 12.6714 2.99994 13.4999 2.99994C14.3284 2.99994 15.0002 3.6709 15.0002 4.50001C15.0002 5.32777 14.3284 6.00009 13.4999 6.00009Z" fill="white"/>
</svg>
