<svg width="16" height="16" viewBox="0 0 16 16" fill="none" xmlns="http://www.w3.org/2000/svg">
<g id="Component 1" opacity="0.9">
<g id="Group 40023">
<path id="Union" fill-rule="evenodd" clip-rule="evenodd" d="M1.99996 0H10.9998C12.1029 0 12.9997 0.896874 12.9997 2V7.99999C12.9997 9.10311 12.1029 9.99999 10.9998 9.99999H3.68086L0.819983 12.384C0.729047 12.46 0.614987 12.5 0.49999 12.5C0.428116 12.5 0.354993 12.484 0.288119 12.4531C0.111873 12.3709 0 12.194 0 12V2C0 0.896874 0.896856 0 1.99996 0ZM3.49999 3H9.49986C9.77579 3 9.99985 3.22406 9.99985 3.5C9.99985 3.77594 9.77579 4 9.49986 4H3.49999C3.22406 4 3 3.77594 3 3.5C3 3.22406 3.22406 3 3.49999 3ZM7.49991 5H3.49999C3.22406 5 3 5.22406 3 5.5C3 5.77594 3.22406 6 3.49999 6H7.49991C7.77584 6 7.9999 5.77594 7.9999 5.5C7.9999 5.22406 7.77584 5 7.49991 5Z" fill="#4B4B4B"/>
<g id="Group">
<g id="Group_2">
<path id="Vector" d="M13.9997 4.00002C13.7238 4.00002 13.4997 4.22408 13.4997 4.50001C13.4997 4.77595 13.7238 5.00001 13.9997 5.00001C14.5516 5.00001 14.9997 5.44908 14.9997 6.00001V14.4591L13.3116 13.1091C13.2235 13.0391 13.1126 13 12.9998 13H5.9999C5.44803 13 4.99992 12.5509 4.99992 12V11.5C4.99992 11.2241 4.77586 11 4.49993 11C4.224 11 3.99994 11.2241 3.99994 11.5V12C3.99994 13.1031 4.8968 14 5.9999 14H12.8238L15.1869 15.8909C15.2778 15.9628 15.3888 16 15.5 16C15.5731 16 15.6469 15.9841 15.7169 15.9509C15.89 15.8669 16 15.6919 16 15.5V6.00001C15.9997 4.89689 15.1028 4.00002 13.9997 4.00002Z" fill="#4B4B4B"/>
</g>
</g>
</g>
</g>
</svg>
