<svg width="16" height="16" viewBox="0 0 16 16" fill="none" xmlns="http://www.w3.org/2000/svg">
<path id="Vector" d="M14.9706 1.20473e-06H0.673978C0.421665 -0.000474686 0.190497 0.140071 0.0752307 0.363897C-0.0416252 0.590737 -0.0211158 0.863897 0.128174 1.07107L5.36586 8.4329C5.36761 8.43544 5.36952 8.43782 5.37127 8.44036C5.56158 8.6967 5.6646 9.0073 5.66508 9.3263V15.3284C5.66397 15.506 5.73392 15.6769 5.85936 15.803C5.98496 15.9289 6.15571 16 6.33378 16C6.42424 15.9998 6.51391 15.9819 6.59754 15.9472L9.54072 14.8276C9.80432 14.7471 9.97937 14.4989 9.97937 14.2V9.3263C9.97984 9.0073 10.0829 8.6967 10.273 8.44036C10.2748 8.43782 10.2767 8.43544 10.2784 8.4329L15.5163 1.07091C15.6656 0.863897 15.6861 0.590896 15.5692 0.364056C15.4541 0.140071 15.2228 -0.000474686 14.9706 1.20473e-06Z" fill="#4D4D4D"/>
</svg>
