<svg width="17" height="18" viewBox="0 0 17 18" fill="none" xmlns="http://www.w3.org/2000/svg">
<g id="Group">
<path id="Vector" fill-rule="evenodd" clip-rule="evenodd" d="M7.36667 7.86667H1.13333C0.507733 7.86667 0 8.3744 0 9C0 9.6256 0.507733 10.1333 1.13333 10.1333H7.36667V16.3667C7.36667 16.9923 7.8744 17.5 8.5 17.5C9.1256 17.5 9.63333 16.9923 9.63333 16.3667V10.1333H15.8667C16.4923 10.1333 17 9.6256 17 9C17 8.3744 16.4923 7.86667 15.8667 7.86667H9.63333V1.63333C9.63333 1.00773 9.1256 0.5 8.5 0.5C7.8744 0.5 7.36667 1.00773 7.36667 1.63333V7.86667Z" fill="white"/>
</g>
</svg>
