<svg width="16" height="16" viewBox="0 0 16 16" fill="none" xmlns="http://www.w3.org/2000/svg">
<path id="Union" fill-rule="evenodd" clip-rule="evenodd" d="M1.6 0C0.716344 0 0 0.716344 0 1.6V2.66666V5.6C0 6.48368 0.716344 7.2 1.6 7.2H14.4C15.2837 7.2 16 6.48368 16 5.6V1.6C16 0.716344 15.2837 0 14.4 0H1.6ZM10.4 8.8C9.51632 8.8 8.8 9.51632 8.8 10.4V11.4666V14.4C8.8 15.2837 9.51632 16 10.4 16H14.4C15.2837 16 16 15.2837 16 14.4V10.4C16 9.51632 15.2837 8.8 14.4 8.8H10.4ZM0 10.4C0 9.51632 0.716344 8.8 1.6 8.8H5.6C6.48368 8.8 7.2 9.51632 7.2 10.4V14.4C7.2 15.2837 6.48368 16 5.6 16H1.6C0.716344 16 0 15.2837 0 14.4V11.4666V10.4Z" fill="#484848"/>
</svg>
