<svg width="18" height="18" viewBox="0 0 18 18" fill="none" xmlns="http://www.w3.org/2000/svg">
<g id="Group">
<g id="Group_2">
<path id="Vector" d="M2.13565 12.4649C-0.712074 9.6172 -0.712017 4.98355 2.13565 2.13581C4.98343 -0.711936 9.61709 -0.711936 12.4648 2.13581C14.8808 4.55173 15.2467 8.14482 13.5635 10.9506C13.5635 10.9506 13.4426 11.1535 13.6059 11.3166C14.5374 12.2481 17.3323 15.043 17.3323 15.043C18.074 15.7846 18.2505 16.8217 17.5928 17.4796L17.4796 17.5927C16.8218 18.2505 15.7847 18.074 15.043 17.3323C15.043 17.3323 12.2541 14.5434 11.3244 13.6138C11.1533 13.4427 10.9505 13.5636 10.9505 13.5636C8.14475 15.2467 4.5516 14.8809 2.13565 12.4649ZM11.1164 11.1165C13.2206 9.01229 13.2205 5.58857 11.1163 3.48438C9.01211 1.38025 5.58835 1.38019 3.48419 3.48438C1.37997 5.58852 1.37997 9.01229 3.48419 11.1165C5.58841 13.2206 9.01211 13.2206 11.1164 11.1165Z" fill="white"/>
<g id="Group_3">
<path id="Vector_2" d="M10.6517 6.86814C10.7496 6.86814 10.8492 6.84889 10.9452 6.80836C11.3285 6.64611 11.5079 6.20379 11.3456 5.82039C10.3259 3.41056 7.53571 2.27966 5.12591 3.2994C4.74256 3.46164 4.5632 3.90396 4.72545 4.28736C4.88775 4.67076 5.32996 4.85 5.71348 4.68781C7.35764 3.9921 9.26145 4.76372 9.95712 6.40785C10.0788 6.6954 10.358 6.86814 10.6517 6.86814Z" fill="white"/>
</g>
</g>
</g>
</svg>
