<svg width="51" height="51" viewBox="0 0 51 51" fill="none" xmlns="http://www.w3.org/2000/svg">
<g id="Group 40818">
<g id="Rectangle 4003" filter="url(#filter0_d_1_256)">
<rect x="9" y="7" width="33" height="33" rx="6.6" fill="white"/>
</g>
<g id="Group">
<g id="Group_2">
<path id="Vector" d="M32.4886 24.7583L30.972 23.5724C30.9912 23.3895 31.0077 23.1757 31.0077 22.9495C31.0077 22.7233 30.9919 22.5095 30.972 22.3266L32.49 21.14C32.7719 20.9173 32.8488 20.522 32.6694 20.1927L31.0923 17.4639C30.9238 17.156 30.5546 16.9978 30.18 17.136L28.3904 17.8544C28.0473 17.6069 27.6878 17.3979 27.3158 17.2309L27.0436 15.3327C26.9989 14.9724 26.6854 14.7002 26.3148 14.7002H23.1524C22.7818 14.7002 22.469 14.9724 22.425 15.3272L22.152 17.2323C21.7918 17.3945 21.4377 17.6008 21.0795 17.8558L19.2852 17.1353C18.9489 17.0054 18.5468 17.1511 18.3797 17.4578L16.8005 20.1899C16.6142 20.5048 16.6912 20.9138 16.9793 21.1421L18.4959 22.328C18.4718 22.5597 18.4602 22.7612 18.4602 22.9502C18.4602 23.1393 18.4719 23.3407 18.4959 23.5731L16.9779 24.7597C16.696 24.9831 16.6197 25.3785 16.7991 25.7071L18.3763 28.4358C18.5447 28.7431 18.9105 28.9026 19.2886 28.7637L21.0782 28.0453C21.4205 28.2921 21.7801 28.5011 22.152 28.6688L22.4243 30.5663C22.469 30.9279 22.7818 31.2002 23.153 31.2002H26.3155C26.6861 31.2002 26.9996 30.9279 27.0436 30.5732L27.3165 28.6688C27.6768 28.5059 28.0301 28.3003 28.389 28.0446L30.1834 28.7651C30.27 28.7987 30.3601 28.8159 30.4529 28.8159C30.7196 28.8159 30.9651 28.6702 31.0888 28.4433L32.6728 25.7002C32.8488 25.3784 32.7718 24.9831 32.4886 24.7583ZM24.7336 25.7002C23.217 25.7002 21.9836 24.4668 21.9836 22.9502C21.9836 21.4336 23.217 20.2002 24.7336 20.2002C26.2502 20.2002 27.4836 21.4336 27.4836 22.9502C27.4836 24.4668 26.2502 25.7002 24.7336 25.7002Z" fill="#484848"/>
</g>
</g>
</g>
<defs>
<filter id="filter0_d_1_256" x="0.2" y="0.4" width="50.6" height="50.6" filterUnits="userSpaceOnUse" color-interpolation-filters="sRGB">
<feFlood flood-opacity="0" result="BackgroundImageFix"/>
<feColorMatrix in="SourceAlpha" type="matrix" values="0 0 0 0 0 0 0 0 0 0 0 0 0 0 0 0 0 0 127 0" result="hardAlpha"/>
<feOffset dy="2.2"/>
<feGaussianBlur stdDeviation="4.4"/>
<feColorMatrix type="matrix" values="0 0 0 0 0.388235 0 0 0 0 0.388235 0 0 0 0 0.388235 0 0 0 0.2 0"/>
<feBlend mode="normal" in2="BackgroundImageFix" result="effect1_dropShadow_1_256"/>
<feBlend mode="normal" in="SourceGraphic" in2="effect1_dropShadow_1_256" result="shape"/>
</filter>
</defs>
</svg>
