<svg width="51" height="51" viewBox="0 0 51 51" fill="none" xmlns="http://www.w3.org/2000/svg">
<g id="Group 40819">
<g id="Rectangle 4002" filter="url(#filter0_d_1_251)">
<rect x="9" y="7" width="33" height="33" rx="6.6" fill="white"/>
</g>
<g id="Group">
<g id="Group_2">
<path id="Vector" d="M26.0508 14.7002C21.5194 14.7002 17.8008 18.4188 17.8008 22.9502C17.8008 27.4816 21.5194 31.2002 26.0508 31.2002C30.5822 31.2002 34.3008 27.4816 34.3008 22.9502C34.3008 18.4188 30.5822 14.7002 26.0508 14.7002ZM27.0176 26.8174C27.0176 27.3503 26.5837 27.7842 26.0508 27.7842C25.5178 27.7842 25.084 27.3503 25.084 26.8174V21.9834C25.084 21.4504 25.5178 21.0166 26.0508 21.0166C26.5837 21.0166 27.0176 21.4504 27.0176 21.9834V26.8174ZM26.0508 20.0498C25.5178 20.0498 25.084 19.616 25.084 19.083C25.084 18.55 25.5178 18.1162 26.0508 18.1162C26.5837 18.1162 27.0176 18.55 27.0176 19.083C27.0176 19.616 26.5837 20.0498 26.0508 20.0498Z" fill="#484848"/>
</g>
</g>
</g>
<defs>
<filter id="filter0_d_1_251" x="0.2" y="0.4" width="50.6" height="50.6" filterUnits="userSpaceOnUse" color-interpolation-filters="sRGB">
<feFlood flood-opacity="0" result="BackgroundImageFix"/>
<feColorMatrix in="SourceAlpha" type="matrix" values="0 0 0 0 0 0 0 0 0 0 0 0 0 0 0 0 0 0 127 0" result="hardAlpha"/>
<feOffset dy="2.2"/>
<feGaussianBlur stdDeviation="4.4"/>
<feColorMatrix type="matrix" values="0 0 0 0 0.388235 0 0 0 0 0.388235 0 0 0 0 0.388235 0 0 0 0.2 0"/>
<feBlend mode="normal" in2="BackgroundImageFix" result="effect1_dropShadow_1_251"/>
<feBlend mode="normal" in="SourceGraphic" in2="effect1_dropShadow_1_251" result="shape"/>
</filter>
</defs>
</svg>
